<svg xmlns="http://www.w3.org/2000/svg" width="900" height="260">
  <rect x="20" y="40" width="360" height="180" fill="none" stroke="black" stroke-width="2"/>
  <text x="40" y="70" font-family="Arial" font-size="16">Environmental Chamber</text>
  <text x="40" y="95" font-family="Arial" font-size="13">(-40°C to 125°C sweep)</text>

  <rect x="145" y="120" width="160" height="55" fill="none" stroke="black" stroke-width="2"/>
  <text x="165" y="150" font-family="Arial" font-size="14">DUT / Socket</text>

  <rect x="430" y="70" width="200" height="55" fill="none" stroke="black" stroke-width="2"/>
  <text x="445" y="102" font-family="Arial" font-size="14">Frequency Counter</text>

  <rect x="430" y="150" width="200" height="55" fill="none" stroke="black" stroke-width="2"/>
  <text x="445" y="182" font-family="Arial" font-size="14">Oscilloscope</text>

  <rect x="680" y="110" width="200" height="55" fill="none" stroke="black" stroke-width="2"/>
  <text x="695" y="142" font-family="Arial" font-size="14">Python Logger</text>

  <line x1="20" y1="140" x2="145" y2="140" stroke="black" stroke-width="2"/>
  <text x="35" y="130" font-family="Arial" font-size="12">PSU (±10%)</text>

  <line x1="305" y1="135" x2="430" y2="95" stroke="black" stroke-width="2"/>
  <text x="330" y="105" font-family="Arial" font-size="12">CLK out</text>

  <line x1="305" y1="150" x2="430" y2="178" stroke="black" stroke-width="2"/>
  <text x="330" y="175" font-family="Arial" font-size="12">probe</text>

  <line x1="630" y1="98" x2="680" y2="138" stroke="black" stroke-width="2"/>
  <line x1="630" y1="178" x2="680" y2="138" stroke="black" stroke-width="2"/>
  <text x="640" y="125" font-family="Arial" font-size="12">T/V/F</text>
</svg>